<!DOCTYPE svg PUBLIC "-//W3C//DTD SVG 1.1//EN" "http://www.w3.org/Graphics/SVG/1.1/DTD/svg11.dtd">
<!-- Uploaded to: SVG Repo, www.svgrepo.com, Transformed by: SVG Repo Mixer Tools -->
<svg fill="#000000" width="64px" height="64px" viewBox="0 0 24 24" id="unlink-alt-4" data-name="Flat Line" xmlns="http://www.w3.org/2000/svg" class="icon flat-line">
<g id="SVGRepo_bgCarrier" stroke-width="0"/>
<g id="SVGRepo_tracerCarrier" stroke-linecap="round" stroke-linejoin="round"/>
<g id="SVGRepo_iconCarrier">
<rect id="secondary" x="3" y="8" width="18" height="8" rx="1" style="fill: #2ca9bc; stroke-width: 2;"/>
<path id="primary" d="M8,12h8M12,4V3M9,5,8,4m7,1,1-1M12,20v1M9,19,8,20m7-1,1,1" style="fill: none; stroke: #000000; stroke-linecap: round; stroke-linejoin: round; stroke-width: 2;"/>
<path id="primary-2" data-name="primary" d="M10,9A1,1,0,0,0,9,8H4A1,1,0,0,0,3,9v6a1,1,0,0,0,1,1H9a1,1,0,0,0,1-1" style="fill: none; stroke: #000000; stroke-linecap: round; stroke-linejoin: round; stroke-width: 2;"/>
<path id="primary-3" data-name="primary" d="M14,15a1,1,0,0,0,1,1h5a1,1,0,0,0,1-1V9a1,1,0,0,0-1-1H15a1,1,0,0,0-1,1" style="fill: none; stroke: #000000; stroke-linecap: round; stroke-linejoin: round; stroke-width: 2;"/>
</g>
</svg>